<svg data-v-fde0c5aa="" xmlns="http://www.w3.org/2000/svg" viewBox="0 0 300 300" class="iconLeft"><!----><defs data-v-fde0c5aa=""><!----></defs><rect data-v-fde0c5aa="" fill="transparent" x="0" y="0" width="300px" height="300px" class="logo-background-square"></rect><defs data-v-fde0c5aa=""><!----></defs><g data-v-fde0c5aa="" id="1b6dcd5d-7c50-4e4b-aca3-09513f4dd553" fill="#000000" transform="matrix(1.7025469824384796,0,0,1.7025469824384796,117.88839764428619,134.242927076772)"><path d="M5.75 14.35L7.63 14.35L7.63 9.13L4.09 9.13L4.09 10.61L5.75 10.61L5.75 11.33C5.75 12.19 5.28 12.82 4.34 12.82C3.12 12.82 2.72 11.79 2.72 10.21L2.72 8.61C2.72 7.04 3.11 6.10 4.17 6.10C5.14 6.10 5.46 6.87 5.67 7.70L7.63 7.22C7.24 5.54 6.23 4.41 4.21 4.41C1.68 4.41 0.49 6.23 0.49 9.55C0.49 12.66 1.53 14.52 3.44 14.52C4.65 14.52 5.31 13.78 5.63 12.96L5.75 12.96ZM12.80 14.52C14.35 14.52 15.33 13.93 15.89 13.24L14.77 12.03C14.32 12.56 13.72 12.92 12.87 12.92C11.76 12.92 11.16 12.29 11.16 11.37L11.16 11.24L16.10 11.24L16.10 10.63C16.10 8.37 14.77 6.96 12.61 6.96C10.44 6.96 9.10 8.40 9.10 10.77C9.10 13.08 10.37 14.52 12.80 14.52ZM12.63 8.44C13.52 8.44 14.07 9.03 14.07 9.97L14.07 10.08L11.16 10.08L11.16 9.97C11.16 9.04 11.73 8.44 12.63 8.44ZM21.20 14.52C22.75 14.52 23.73 13.93 24.29 13.24L23.17 12.03C22.72 12.56 22.12 12.92 21.27 12.92C20.16 12.92 19.56 12.29 19.56 11.37L19.56 11.24L24.50 11.24L24.50 10.63C24.50 8.37 23.17 6.96 21.01 6.96C18.84 6.96 17.50 8.40 17.50 10.77C17.50 13.08 18.77 14.52 21.20 14.52ZM21.03 8.44C21.92 8.44 22.47 9.03 22.47 9.97L22.47 10.08L19.56 10.08L19.56 9.97C19.56 9.04 20.13 8.44 21.03 8.44ZM26.11 14.35L28.18 14.35L28.18 11.84L28.87 11.16L30.97 14.35L33.43 14.35L30.34 9.98L33.14 7.13L30.76 7.13L29.25 8.74L28.28 9.87L28.18 9.87L28.18 3.99L26.11 3.99ZM38.02 14.52C40.04 14.52 41.09 13.41 41.48 11.70L39.52 11.23C39.31 12.15 38.96 12.82 37.98 12.82C36.85 12.82 36.41 11.87 36.41 10.32L36.41 8.61C36.41 7.06 36.85 6.10 37.98 6.10C38.96 6.10 39.31 6.78 39.52 7.70L41.48 7.22C41.09 5.52 40.04 4.41 38.02 4.41C35.41 4.41 34.17 6.26 34.17 9.46C34.17 12.67 35.41 14.52 38.02 14.52ZM46.40 14.52C47.95 14.52 48.93 13.93 49.49 13.24L48.37 12.03C47.92 12.56 47.32 12.92 46.47 12.92C45.36 12.92 44.76 12.29 44.76 11.37L44.76 11.24L49.70 11.24L49.70 10.63C49.70 8.37 48.37 6.96 46.21 6.96C44.04 6.96 42.70 8.40 42.70 10.77C42.70 13.08 43.97 14.52 46.40 14.52ZM46.23 8.44C47.12 8.44 47.67 9.03 47.67 9.97L47.67 10.08L44.76 10.08L44.76 9.97C44.76 9.04 45.33 8.44 46.23 8.44ZM53.38 14.35L53.38 9.60C53.38 8.90 54.01 8.55 54.66 8.55C55.47 8.55 55.87 9.04 55.87 9.95L55.87 14.35L57.95 14.35L57.95 9.67C57.95 7.92 56.98 6.96 55.59 6.96C54.43 6.96 53.79 7.63 53.47 8.44L53.38 8.44L53.38 7.13L51.31 7.13L51.31 14.35ZM66.23 14.35L66.23 12.74L63.42 12.74L63.42 8.74L66.23 8.74L66.23 7.13L63.42 7.13L63.42 4.58L61.52 4.58L61.52 6.27C61.52 6.92 61.28 7.13 60.66 7.13L59.39 7.13L59.39 8.74L61.35 8.74L61.35 12.26C61.35 13.48 62.06 14.35 63.56 14.35ZM71.60 14.52C73.15 14.52 74.13 13.93 74.69 13.24L73.57 12.03C73.12 12.56 72.52 12.92 71.67 12.92C70.56 12.92 69.96 12.29 69.96 11.37L69.96 11.24L74.90 11.24L74.90 10.63C74.90 8.37 73.57 6.96 71.41 6.96C69.24 6.96 67.90 8.40 67.90 10.77C67.90 13.08 69.17 14.52 71.60 14.52ZM71.43 8.44C72.32 8.44 72.87 9.03 72.87 9.97L72.87 10.08L69.96 10.08L69.96 9.97C69.96 9.04 70.53 8.44 71.43 8.44ZM76.64 14.35L82.75 14.35L82.75 12.74L80.37 12.74L80.37 10.60C80.37 9.73 80.91 9.03 81.93 9.03L83.47 9.03L83.47 7.13L82.78 7.13C81.35 7.13 80.74 8.11 80.47 9.17L80.37 9.17L80.37 7.13L76.64 7.13L76.64 8.74L78.30 8.74L78.30 12.74L76.64 12.74Z"></path></g><defs data-v-fde0c5aa=""><linearGradient data-v-fde0c5aa="" gradientTransform="rotate(25)" id="d13200a9-867a-48a4-ba9a-39b8d96b67ac" x1="0%" y1="0%" x2="100%" y2="0%"><stop data-v-fde0c5aa="" offset="0%" stop-color="#0076DD" stop-opacity="1"></stop><stop data-v-fde0c5aa="" offset="100%" stop-color="#00CDE9" stop-opacity="1"></stop></linearGradient></defs><g data-v-fde0c5aa="" id="82837446-3469-4aa6-9856-bf0a9d1c5d10" stroke="none" fill="url(#d13200a9-867a-48a4-ba9a-39b8d96b67ac)" transform="matrix(0.7469925372551428,0,0,0.7469925372551428,35.51169526581416,112.65037313724285)"><path d="M29 42c-4.411 0-8 3.589-8 8 0 1.323-2 1.321-2 0 0-5.514 4.486-10 10-10 1.323 0 1.321 2 0 2zM71 42c-4.411 0-8 3.589-8 8 0 1.323-2 1.321-2 0 0-5.514 4.486-10 10-10 1.323 0 1.321 2 0 2z"></path><path d="M93 46h-4.464C86.711 37.996 79.549 32 71 32c-6.837 0-12.795 3.833-15.841 9.462-3.122-1.877-7.194-1.878-10.318 0C41.795 35.833 35.837 32 29 32c-8.549 0-15.711 5.996-17.536 14H7c-1.321 0-1.323 2 0 2h4.118C9.921 58.766 18.382 68 29 68c12.656 0 21.488-12.851 16.684-24.725 2.581-1.654 6.054-1.653 8.632 0C49.511 55.15 58.347 68 71 68c10.608 0 19.081-9.223 17.882-20H93c1.321 0 1.323-2 0-2zM29 66c-8.822 0-16-7.178-16-16s7.178-16 16-16 16 7.178 16 16-7.178 16-16 16zm42 0c-8.822 0-16-7.178-16-16s7.178-16 16-16 16 7.178 16 16-7.178 16-16 16z"></path></g><!----></svg>